<?xml version="1.0" encoding="utf-8"?>
<!-- Generator: Fusion 360, Shaper Origin Export Add-In, Version 1.6.3  -->
<svg xmlns="http://www.w3.org/2000/svg" xmlns:xlink="http://www.w3.org/1999/xlink" xmlns:shaper="http://www.shapertools.com/namespaces/shaper" shaper:fusionaddin="version:1.6.3" width="10.9193652cm" height="10.8cm" version="1.1" x="0cm" y="0cm" viewBox="0 0 10.9193652 10.8" enable-background="new 0 0 10.9193652 10.8" xml:space="preserve"><path d="M10.9193652,10.8 L10.9193652,0 0,0 0,10.8 10.9193652,10.8z" transform="matrix(1,0,0,-1,-0,10.8)" fill="rgb(0,0,0)" shaper:cutDepth="0.0064" stroke-linecap="round" stroke-linejoin="round" /><path d="M4.37,8.52 a0.5,0.5 0 1,0 1,0 a0.5,0.5 0 1,0 -1,0z" transform="matrix(1,0,0,-1,-0,10.8)" fill="rgb(146,146,146)" fill-rule="nonzero" shaper:cutDepth="0.003" stroke-linecap="round" stroke-linejoin="round" /><path d="M9.36,7.66 a0.5,0.5 0 1,0 1,0 a0.5,0.5 0 1,0 -1,0z" transform="matrix(1,0,0,-1,-0,10.8)" fill="rgb(146,146,146)" fill-rule="nonzero" shaper:cutDepth="0.003" stroke-linecap="round" stroke-linejoin="round" /><path d="M2.51,2.25 a0.5,0.5 0 1,0 1,0 a0.5,0.5 0 1,0 -1,0z" transform="matrix(1,0,0,-1,-0,10.8)" fill="rgb(146,146,146)" fill-rule="nonzero" shaper:cutDepth="0.003" stroke-linecap="round" stroke-linejoin="round" /><path d="M7.97,2.44 a0.5,0.5 0 1,0 1,0 a0.5,0.5 0 1,0 -1,0z" transform="matrix(1,0,0,-1,-0,10.8)" fill="rgb(146,146,146)" fill-rule="nonzero" shaper:cutDepth="0.003" stroke-linecap="round" stroke-linejoin="round" /><path d="M9.71,7.66 a0.15,0.15 0 1,1 0.3,0 a0.15,0.15 0 1,1 -0.3,0z" transform="matrix(1,0,0,-1,-0,10.8)" fill="rgb(255,255,255)" stroke="rgb(0,0,0)" stroke-width="0.0010cm" stroke-linecap="round" stroke-linejoin="round" shaper:cutDepth="0.0064" /><path d="M8.32,2.44 a0.15,0.15 0 1,1 0.3,0 a0.15,0.15 0 1,1 -0.3,0z" transform="matrix(1,0,0,-1,-0,10.8)" fill="rgb(255,255,255)" stroke="rgb(0,0,0)" stroke-width="0.0010cm" stroke-linecap="round" stroke-linejoin="round" shaper:cutDepth="0.0064" /><path d="M4.72,8.52 a0.15,0.15 0 1,1 0.3,0 a0.15,0.15 0 1,1 -0.3,0z" transform="matrix(1,0,0,-1,-0,10.8)" fill="rgb(255,255,255)" stroke="rgb(0,0,0)" stroke-width="0.0010cm" stroke-linecap="round" stroke-linejoin="round" shaper:cutDepth="0.0064" /><path d="M2.86,2.25 a0.15,0.15 0 1,1 0.3,0 a0.15,0.15 0 1,1 -0.3,0z" transform="matrix(1,0,0,-1,-0,10.8)" fill="rgb(255,255,255)" stroke="rgb(0,0,0)" stroke-width="0.0010cm" stroke-linecap="round" stroke-linejoin="round" shaper:cutDepth="0.0064" /></svg>