<?xml version="1.0" encoding="utf-8"?>
<!-- Generator: Fusion 360, Shaper Origin Export Add-In, Version 1.6.3  -->
<svg xmlns="http://www.w3.org/2000/svg" xmlns:xlink="http://www.w3.org/1999/xlink" xmlns:shaper="http://www.shapertools.com/namespaces/shaper" shaper:fusionaddin="version:1.6.3" width="10.9193652cm" height="10.8cm" version="1.1" x="0cm" y="0cm" viewBox="0 0 10.9193652 10.8" enable-background="new 0 0 10.9193652 10.8" xml:space="preserve"><path d="M0,10.8 L10.9193652,10.8 10.9193652,0 0,0 0,10.8z" transform="matrix(1,0,0,-1,-0,10.8)" fill="rgb(0,0,0)" shaper:cutDepth="0.0064" stroke-linecap="round" stroke-linejoin="round" /><path d="M0,10.8 L10.9193652,10.8 10.9193652,0 0,0 0,10.8z M0.31,0.31 L10.6093652,0.31 10.6093652,10.49 0.31,10.49 0.31,0.31z" transform="matrix(1,0,0,-1,-0,10.8)" fill="rgb(137,137,137)" fill-rule="nonzero" shaper:cutDepth="0.0024" stroke-linecap="round" stroke-linejoin="round" /><path d="M0.31,10.49 L10.6093652,10.49 10.6093652,0.31 0.31,0.31 0.31,10.49z M0.7593652,7.66 a0.3,0.3 0 1,1 0.6,0 a0.3,0.3 0 1,1 -0.6,0z M2.1493652,2.44 a0.3,0.3 0 1,1 0.6,0 a0.3,0.3 0 1,1 -0.6,0z M7.6093653,2.2500006 a0.3,0.3 0 1,1 0.6,0 a0.3,0.3 0 1,1 -0.6,0z M5.7493652,8.52 a0.3,0.3 0 1,1 0.6,0 a0.3,0.3 0 1,1 -0.6,0z" transform="matrix(1,0,0,-1,-0,10.8)" fill="rgb(129,129,129)" fill-rule="nonzero" shaper:cutDepth="0.0019" stroke-linecap="round" stroke-linejoin="round" /><path d="M5.8993652,8.52 a0.15,0.15 0 1,1 0.3,0 a0.15,0.15 0 1,1 -0.3,0z" transform="matrix(1,0,0,-1,-0,10.8)" fill="rgb(255,255,255)" stroke="rgb(0,0,0)" stroke-width="0.0010cm" stroke-linecap="round" stroke-linejoin="round" shaper:cutDepth="0.0064" /><path d="M0.9093652,7.66 a0.15,0.15 0 1,1 0.3,0 a0.15,0.15 0 1,1 -0.3,0z" transform="matrix(1,0,0,-1,-0,10.8)" fill="rgb(255,255,255)" stroke="rgb(0,0,0)" stroke-width="0.0010cm" stroke-linecap="round" stroke-linejoin="round" shaper:cutDepth="0.0064" /><path d="M7.7593652,2.25 a0.15,0.15 0 1,1 0.3,0 a0.15,0.15 0 1,1 -0.3,0z" transform="matrix(1,0,0,-1,-0,10.8)" fill="rgb(255,255,255)" stroke="rgb(0,0,0)" stroke-width="0.0010cm" stroke-linecap="round" stroke-linejoin="round" shaper:cutDepth="0.0064" /><path d="M2.2993652,2.44 a0.15,0.15 0 1,1 0.3,0 a0.15,0.15 0 1,1 -0.3,0z" transform="matrix(1,0,0,-1,-0,10.8)" fill="rgb(255,255,255)" stroke="rgb(0,0,0)" stroke-width="0.0010cm" stroke-linecap="round" stroke-linejoin="round" shaper:cutDepth="0.0064" /></svg>