<?xml version="1.0" encoding="utf-8"?>
<!-- Generator: Fusion 360, Shaper Origin Export Add-In, Version 1.6.3  -->
<svg xmlns="http://www.w3.org/2000/svg" xmlns:xlink="http://www.w3.org/1999/xlink" xmlns:shaper="http://www.shapertools.com/namespaces/shaper" shaper:fusionaddin="version:1.6.3" width="5cm" height="5cm" version="1.1" x="0cm" y="0cm" viewBox="0 0 5 5" enable-background="new 0 0 5 5" xml:space="preserve"><path d="M-3,1.9 a2.5,2.5 0 1,1 5,0 a2.5,2.5 0 1,1 -5,0z" transform="matrix(1,0,0,-1,3,4.4)" fill="rgb(0,0,0)" shaper:cutDepth="0.012" stroke-linecap="round" stroke-linejoin="round" /><path d="M-0.8,1.9 a0.3,0.3 0 1,1 0.6,0 a0.3,0.3 0 1,1 -0.6,0z" transform="matrix(1,0,0,-1,3,4.4)" fill="rgb(183,183,183)" fill-rule="nonzero" shaper:cutDepth="0.01" stroke-linecap="round" stroke-linejoin="round" /><path d="M-1.25,1.9 a0.75,0.75 0 1,0 1.5,0 a0.75,0.75 0 1,0 -1.5,0z" transform="matrix(1,0,0,-1,3,4.4)" fill="rgb(116,116,116)" fill-rule="nonzero" shaper:cutDepth="0.002" stroke-linecap="round" stroke-linejoin="round" /></svg>