0
SECTION
2
HEADER
9
$INSUNITS
70
1
9
$ACADVER
1
AC1014
9
$HANDSEED
5
FFFF
0
ENDSEC
0
SECTION
2
TABLES
0
TABLE
2
VPORT
5
8
100
AcDbSymbolTable
0
ENDTAB
0
TABLE
2
LTYPE
5
5
100
AcDbSymbolTable
0
LTYPE
5
14
100
AcDbSymbolTableRecord
100
AcDbLinetypeTableRecord
2
BYBLOCK
70
0
0
LTYPE
5
15
100
AcDbSymbolTableRecord
100
AcDbLinetypeTableRecord
2
BYLAYER
70
0
0
ENDTAB
0
TABLE
2
LAYER
5
2
100
AcDbSymbolTable
70
2
0
LAYER
5
50
100
AcDbSymbolTableRecord
100
AcDbLayerTableRecord
2
0
70
0
6
CONTINUOUS
0
ENDTAB
0
TABLE
2
STYLE
5
3
100
AcDbSymbolTable
70
1
0
STYLE
5
11
100
AcDbSymbolTableRecord
100
AcDbTextStyleTableRecord
2
STANDARD
70
0
0
ENDTAB
0
TABLE
2
VIEW
5
6
100
AcDbSymbolTable
70
0
0
ENDTAB
0
TABLE
2
UCS
5
7
100
AcDbSymbolTable
70
0
0
ENDTAB
0
TABLE
2
APPID
5
9
100
AcDbSymbolTable
70
2
0
APPID
5
12
100
AcDbSymbolTableRecord
100
AcDbRegAppTableRecord
2
ACAD
70
0
0
ENDTAB
0
TABLE
2
DIMSTYLE
5
A
100
AcDbSymbolTable
70
1
0
ENDTAB
0
TABLE
2
BLOCK_RECORD
5
1
100
AcDbSymbolTable
70
1
0
BLOCK_RECORD
5
1F
100
AcDbSymbolTableRecord
100
AcDbBlockTableRecord
2
*MODEL_SPACE
0
BLOCK_RECORD
5
1B
100
AcDbSymbolTableRecord
100
AcDbBlockTableRecord
2
*PAPER_SPACE
0
ENDTAB
0
ENDSEC
0
SECTION
2
BLOCKS
0
BLOCK
5
20
100
AcDbEntity
100
AcDbBlockBegin
2
*MODEL_SPACE
0
ENDBLK
5
21
100
AcDbEntity
100
AcDbBlockEnd
0
BLOCK
5
1C
100
AcDbEntity
100
AcDbBlockBegin
2
*PAPER_SPACE
0
ENDBLK
5
1D
100
AcDbEntity
100
AcDbBlockEnd
0
ENDSEC
0
SECTION
2
ENTITIES
0
LWPOLYLINE
5
100
100
AcDbEntity
8
0
100
AcDbPolyline
90
14
70
1
43
0.0
10
3.9999999999999898
20
-9.999999999999984
10
3.9999999999999933
20
44
10
-1.3987061727561026e-15
20
44
10
0
20
-6.0000000000000027
10
-15.999999999999996
20
-5.9999999999999973
10
-15.999999999999996
20
0
10
-287.99999999999994
20
0
10
-287.99999999999994
20
143.99999999999997
10
-192
20
143.99999999999997
10
-192
20
148
10
-291.99999999999994
20
148
10
-291.99999999999994
20
-4.0000000000000098
10
-19.999999999999979
20
-3.9999999999999982
10
-19.999999999999996
20
-9.9999999999999964
0
LWPOLYLINE
5
101
100
AcDbEntity
8
0
100
AcDbPolyline
90
3
70
1
43
0.0
10
-73.500001351664366
20
18.000000000000004
42
0.41421356237309559
10
-67.500001351664366
20
12
10
-67.500001351664366
20
18.000000000000004
0
LINE
5
102
100
AcDbEntity
8
0
100
AcDbLine
10
-67.500001351664366
20
22.500000750924649
30
0
11
-67.500001351664366
21
7.5092465858759836e-07
31
0
0
LINE
5
103
100
AcDbEntity
8
0
100
AcDbLine
10
-73.500001351664366
20
18.000000000000004
30
0
11
-73.500001351664366
21
54.000000000000007
31
0
0
LINE
5
104
100
AcDbEntity
8
0
100
AcDbLine
10
-73.500001351664366
20
54.000000000000007
30
0
11
-43.514587661553733
21
83.985413690110633
31
0
0
LINE
5
105
100
AcDbEntity
8
0
100
AcDbLine
10
-73.500001351664366
20
54.000000000000007
30
0
11
-31.094222637742039
21
54.000000000000007
31
0
0
LINE
5
106
100
AcDbEntity
8
0
100
AcDbLine
10
-73.500001351664366
20
54.000000000000007
30
0
11
-77.742642038783657
21
58.242640687119291
31
0
0
LINE
5
107
100
AcDbEntity
8
0
100
AcDbLine
10
-73.500001351664366
20
54.000000000000007
30
0
11
-73.500001351664352
21
134
31
0
0
LINE
5
108
100
AcDbEntity
8
0
100
AcDbLine
10
-77.742642038783657
20
58.242640687119291
30
0
11
-81.985282725902934
21
62.485281374238575
31
0
0
LINE
5
109
100
AcDbEntity
8
0
100
AcDbLine
10
-81.985282725902934
20
62.485281374238575
30
0
11
-117.98528272590293
21
62.485281374238575
31
0
0
LINE
5
110
100
AcDbEntity
8
0
100
AcDbLine
10
-117.98528272590293
20
62.485281374238575
30
0
11
-126.47056410014153
21
54.000000000000014
31
0
0
LINE
5
111
100
AcDbEntity
8
0
100
AcDbLine
10
-117.98528272590293
20
62.485281374238575
30
0
11
-141.98528272590292
21
62.485281374238575
31
0
0
LINE
5
112
100
AcDbEntity
8
0
100
AcDbLine
10
-141.98528272590292
20
62.485281374238575
30
0
11
-150.4705641001415
21
70.970562748477121
31
0
0
LINE
5
113
100
AcDbEntity
8
0
100
AcDbLine
10
-141.98528272590292
20
62.485281374238575
30
0
11
-177.98528272590292
21
62.485281374238575
31
0
0
LINE
5
114
100
AcDbEntity
8
0
100
AcDbLine
10
-177.98528272590292
20
62.485281374238575
30
0
11
-186.4705641001415
21
54.000000000000014
31
0
0
LINE
5
115
100
AcDbEntity
8
0
100
AcDbLine
10
-177.98528272590292
20
62.485281374238575
30
0
11
-201.98528272590292
21
62.485281374238575
31
0
0
LINE
5
116
100
AcDbEntity
8
0
100
AcDbLine
10
-201.98528272590292
20
62.485281374238575
30
0
11
-210.47056410014147
21
70.97056274847715
31
0
0
LINE
5
117
100
AcDbEntity
8
0
100
AcDbLine
10
-201.98528272590292
20
62.485281374238575
30
0
11
-189.98528272590289
21
62.485281374238575
31
0
0
LINE
5
118
100
AcDbEntity
8
0
100
AcDbLine
10
-201.98528272590292
20
62.485281374238575
30
0
11
-225.98528272590292
21
62.485281374238575
31
0
0
LINE
5
119
100
AcDbEntity
8
0
100
AcDbLine
10
-225.98528272590292
20
62.485281374238575
30
0
11
-249.98528272590292
21
62.485281374238575
31
0
0
LINE
5
120
100
AcDbEntity
8
0
100
AcDbLine
10
-249.98528272590292
20
62.485281374238575
30
0
11
-258.47056410014153
21
54.000000000000014
31
0
0
LINE
5
121
100
AcDbEntity
8
0
100
AcDbLine
10
-249.98528272590292
20
62.485281374238575
30
0
11
-237.98528272590292
21
62.485281374238575
31
0
0
LINE
5
122
100
AcDbEntity
8
0
100
AcDbLine
10
-249.98528272590292
20
62.485281374238575
30
0
11
-258.47056410014153
21
70.970562748477164
31
0
0
LINE
5
123
100
AcDbEntity
8
0
100
AcDbLine
10
-43.514587661553733
20
83.985413690110633
30
0
11
-12.688818169621282
21
114.8111831820431
31
0
0
LINE
5
124
100
AcDbEntity
8
0
100
AcDbLine
10
-126.47056410014153
20
54.000000000000014
30
0
11
-126.47056410014153
21
9.9999998498150671
31
0
0
LINE
5
125
100
AcDbEntity
8
0
100
AcDbLine
10
-150.4705641001415
20
70.970562748477121
30
0
11
-150.4705641001415
21
130.97056274847711
31
0
0
LINE
5
126
100
AcDbEntity
8
0
100
AcDbLine
10
-210.47056410014147
20
70.97056274847715
30
0
11
-210.47056410014147
21
130.97056274847716
31
0
0
LINE
5
127
100
AcDbEntity
8
0
100
AcDbLine
10
-258.47056410014153
20
70.970562748477164
30
0
11
-267.84938126869326
21
80.349379917028941
31
0
0
LINE
5
128
100
AcDbEntity
8
0
100
AcDbLine
10
-186.4705641001415
20
54.000000000000014
30
0
11
-186.4705641001415
21
10.000000000000018
31
0
0
LINE
5
129
100
AcDbEntity
8
0
100
AcDbLine
10
-258.47056410014153
20
54.000000000000014
30
0
11
-258.47056410014153
21
10.000000000000018
31
0
0
LINE
5
130
100
AcDbEntity
8
0
100
AcDbLine
10
-159.98528272590292
20
62.485281374238575
30
0
11
-164.22792341302221
21
58.242640687119291
31
0
0
LINE
5
131
100
AcDbEntity
8
0
100
AcDbLine
10
-159.98528272590292
20
62.485281374238575
30
0
11
-153.98528272590292
21
62.485281374238575
31
0
0
LINE
5
132
100
AcDbEntity
8
0
100
AcDbLine
10
-164.22792341302221
20
58.242640687119291
30
0
11
-164.22792341302221
21
10.242640687119289
31
0
0
ENDSEC
0
SECTION
2
OBJECTS
0
DICTIONARY
5
C
100
AcDbDictionary
3
ACAD_GROUP
350
D
3
ACAD_MLINESTYLE
350
17
0
DICTIONARY
5
D
100
AcDbDictionary
0
DICTIONARY
5
1A
330
C
100
AcDbDictionary
0
DICTIONARY
5
17
100
AcDbDictionary
0
ENDSEC
0
EOF
