<?xml version="1.0" encoding="utf-8"?>
<!-- Generator: Fusion 360, Shaper Origin Export Add-In, Version 1.6.3  -->
<svg xmlns="http://www.w3.org/2000/svg" xmlns:xlink="http://www.w3.org/1999/xlink" xmlns:shaper="http://www.shapertools.com/namespaces/shaper" shaper:fusionaddin="version:1.6.3" width="10.8cm" height="10.9193652cm" version="1.1" x="0cm" y="0cm" viewBox="0 0 10.8 10.9193652" enable-background="new 0 0 10.8 10.9193652" xml:space="preserve"><g id="Body_Top Lid"><path d="M27.93,-3.3 L23.4284584,-3.3 21.6304737,-3.3 17.13,-3.3 17.13,-14.2193652 27.93,-14.2193652 27.93,-3.3z" transform="matrix(1,0,0,-1,-17.13,-3.3)" fill="rgb(0,0,0)" shaper:cutDepth="0.0195" stroke-linecap="round" stroke-linejoin="round" /><path d="M26.0546,-4.635 a0.75,0.75 0 1,0 1.5,0 a0.75,0.75 0 1,0 -1.5,0z" transform="matrix(1,0,0,-1,-17.13,-3.3)" fill="rgb(125,125,125)" fill-rule="nonzero" shaper:cutDepth="0.005" stroke-linecap="round" stroke-linejoin="round" /><path d="M23.614425,-4.635 a0.75,0.75 0 1,0 1.5,0 a0.75,0.75 0 1,0 -1.5,0z" transform="matrix(1,0,0,-1,-17.13,-3.3)" fill="rgb(125,125,125)" fill-rule="nonzero" shaper:cutDepth="0.005" stroke-linecap="round" stroke-linejoin="round" /><path d="M19.96984,-4.625 a0.75,0.75 0 1,0 1.5,0 a0.75,0.75 0 1,0 -1.5,0z" transform="matrix(1,0,0,-1,-17.13,-3.3)" fill="rgb(125,125,125)" fill-rule="nonzero" shaper:cutDepth="0.005" stroke-linecap="round" stroke-linejoin="round" /><path d="M17.51,-4.635 a0.75,0.75 0 1,0 1.5,0 a0.75,0.75 0 1,0 -1.5,0z" transform="matrix(1,0,0,-1,-17.13,-3.3)" fill="rgb(125,125,125)" fill-rule="nonzero" shaper:cutDepth="0.005" stroke-linecap="round" stroke-linejoin="round" /><path d="M24.9617805,-14.2193652 L20.2282195,-14.2193652 A2.7,2.7 208.766836 1,0 24.9617805,-14.2193652z" transform="matrix(1,0,0,-1,-17.13,-3.3)" fill="rgb(125,125,125)" fill-rule="nonzero" shaper:cutDepth="0.005" stroke-linecap="round" stroke-linejoin="round" /><path d="M25.5328543,-6.5714348 L25.5328543,-6.3391229 A0.15,0.15 191.1952282 0,0 25.5328543,-6.2808771 L25.3814169,-6.2808771 A0.3,0.3 174.429163 0,1 25.5328543,-6.5714348z" transform="matrix(1,0,0,-1,-17.13,-3.3)" fill="rgb(125,125,125)" fill-rule="nonzero" shaper:cutDepth="0.005" stroke-linecap="round" stroke-linejoin="round" /><path d="M25.8446457,-6.2523 L25.8446457,-6.5607824 A0.3,0.3 303.2860289 0,1 25.9743989,-6.2523 L25.8446457,-6.2523z" transform="matrix(1,0,0,-1,-17.13,-3.3)" fill="rgb(125,125,125)" fill-rule="nonzero" shaper:cutDepth="0.005" stroke-linecap="round" stroke-linejoin="round" /><path d="M19.5371457,-7.8982759 L19.5371457,-8.4417241 A0.3,0.3 295.0759327 0,1 19.5371457,-7.8982759z" transform="matrix(1,0,0,-1,-17.13,-3.3)" fill="rgb(125,125,125)" fill-rule="nonzero" shaper:cutDepth="0.005" stroke-linecap="round" stroke-linejoin="round" /><path d="M19.2253543,-8.4064444 L19.2253543,-7.9335556 A0.3,0.3 127.987218 0,1 19.2253543,-8.4064444z" transform="matrix(1,0,0,-1,-17.13,-3.3)" fill="rgb(125,125,125)" fill-rule="nonzero" shaper:cutDepth="0.005" stroke-linecap="round" stroke-linejoin="round" /><path d="M27.6353543,-13.9193652 L27.63,-13.9193652 27.63,-6.2523 27.6353543,-6.2523 27.6353543,-13.9193652z" transform="matrix(1,0,0,-1,-17.13,-3.3)" fill="rgb(179,179,179)" fill-rule="nonzero" shaper:cutDepth="0.0155" stroke-linecap="round" stroke-linejoin="round" /><path d="M17.885,-4.635 a0.375,0.375 0 1,1 0.75,0 a0.375,0.375 0 1,1 -0.75,0z" transform="matrix(1,0,0,-1,-17.13,-3.3)" fill="rgb(255,255,255)" stroke="rgb(0,0,0)" stroke-width="0.0010cm" stroke-linecap="round" stroke-linejoin="round" shaper:cutDepth="0.0195" /><path d="M20.34484,-4.625 a0.375,0.375 0 1,1 0.75,0 a0.375,0.375 0 1,1 -0.75,0z" transform="matrix(1,0,0,-1,-17.13,-3.3)" fill="rgb(255,255,255)" stroke="rgb(0,0,0)" stroke-width="0.0010cm" stroke-linecap="round" stroke-linejoin="round" shaper:cutDepth="0.0195" /><path d="M22.22,-12.92 a0.375,0.375 0 1,1 0.75,0 a0.375,0.375 0 1,1 -0.75,0z" transform="matrix(1,0,0,-1,-17.13,-3.3)" fill="rgb(255,255,255)" stroke="rgb(0,0,0)" stroke-width="0.0010cm" stroke-linecap="round" stroke-linejoin="round" shaper:cutDepth="0.0195" /><path d="M26.4296,-4.635 a0.375,0.375 0 1,1 0.75,0 a0.375,0.375 0 1,1 -0.75,0z" transform="matrix(1,0,0,-1,-17.13,-3.3)" fill="rgb(255,255,255)" stroke="rgb(0,0,0)" stroke-width="0.0010cm" stroke-linecap="round" stroke-linejoin="round" shaper:cutDepth="0.0195" /><path d="M23.989425,-4.635 a0.375,0.375 0 1,1 0.75,0 a0.375,0.375 0 1,1 -0.75,0z" transform="matrix(1,0,0,-1,-17.13,-3.3)" fill="rgb(255,255,255)" stroke="rgb(0,0,0)" stroke-width="0.0010cm" stroke-linecap="round" stroke-linejoin="round" shaper:cutDepth="0.0195" /><path d="M27.63,-6.2523 L25.9743989,-6.2523 A0.3,0.3 11.0889863 0,0 25.8446457,-6.5607824 L25.8446457,-13.9193652 27.63,-13.9193652 27.63,-6.2523z" transform="matrix(1,0,0,-1,-17.13,-3.3)" fill="rgb(255,255,255)" stroke="rgb(0,0,0)" stroke-width="0.0010cm" stroke-linecap="round" stroke-linejoin="round" shaper:cutDepth="0.0195" /><path d="M19.2253543,-13.9193652 L17.4346457,-13.9193652 17.4346457,-6.2523 19.2253543,-6.2523 19.2253543,-7.9335556 A0.3,0.3 127.987218 0,1 19.2253543,-8.4064444 L19.2253543,-13.9193652z" transform="matrix(1,0,0,-1,-17.13,-3.3)" fill="rgb(255,255,255)" stroke="rgb(0,0,0)" stroke-width="0.0010cm" stroke-linecap="round" stroke-linejoin="round" shaper:cutDepth="0.0195" /><path d="M21.3278543,-10.1126985 L19.5371457,-10.1126985 19.5371457,-8.4417241 A0.3,0.3 295.0759327 0,1 19.5371457,-7.8982759 L19.5371457,-6.2523 21.3278543,-6.2523 21.3278543,-10.1126985z" transform="matrix(1,0,0,-1,-17.13,-3.3)" fill="rgb(255,255,255)" stroke="rgb(0,0,0)" stroke-width="0.0010cm" stroke-linecap="round" stroke-linejoin="round" shaper:cutDepth="0.0195" /><path d="M23.4325,-8.1556333 L23.4325,-10.1126985 21.6396457,-10.1126985 21.6396457,-8.1556333 21.9635514,-8.1556333 A0.055,0.055 151.7491505 0,0 22.0604486,-8.1556333 L22.9795514,-8.1556333 A0.055,0.055 151.7491505 0,0 23.0764486,-8.1556333 L23.4325,-8.1556333z" transform="matrix(1,0,0,-1,-17.13,-3.3)" fill="rgb(255,255,255)" stroke="rgb(0,0,0)" stroke-width="0.0010cm" stroke-linecap="round" stroke-linejoin="round" shaper:cutDepth="0.0195" /><path d="M25.5328543,-6.3391229 A0.15,0.15 191.1952282 0,0 25.5328543,-6.2808771 L25.5328543,-6.3391229z" transform="matrix(1,0,0,-1,-17.13,-3.3)" fill="rgb(255,255,255)" stroke="rgb(0,0,0)" stroke-width="0.0010cm" stroke-linecap="round" stroke-linejoin="round" shaper:cutDepth="0.0195" /><path d="M25.5328543,-6.2808771 L25.5328543,-6.2523 25.5415417,-6.2523 A0.15,0.15 157.3769519 0,1 25.5328543,-6.2808771z" transform="matrix(1,0,0,-1,-17.13,-3.3)" fill="rgb(255,255,255)" stroke="rgb(0,0,0)" stroke-width="0.0010cm" stroke-linecap="round" stroke-linejoin="round" shaper:cutDepth="0.0195" /><path d="M25.5328543,-10.1126985 L23.7421457,-10.1126985 23.7421457,-6.2523 25.3856011,-6.2523 A0.3,0.3 168.9110137 0,1 25.5328543,-6.5714348 L25.5328543,-10.1126985z" transform="matrix(1,0,0,-1,-17.13,-3.3)" fill="rgb(255,255,255)" stroke="rgb(0,0,0)" stroke-width="0.0010cm" stroke-linecap="round" stroke-linejoin="round" shaper:cutDepth="0.0195" /></g></svg>