<?xml version="1.0" encoding="UTF-8" standalone="no"?>
<!DOCTYPE svg PUBLIC "-//W3C//DTD SVG 1.1//EN" "http://www.w3.org/Graphics/SVG/1.1/DTD/svg11.dtd">
<svg width="596px" height="842px" version="1.1" xmlns="http://www.w3.org/2000/svg" xmlns:xlink="http://www.w3.org/1999/xlink" xml:space="preserve" xmlns:serif="http://www.serif.com/" style="fill-rule:evenodd;clip-rule:evenodd;stroke-linejoin:round;stroke-miterlimit:2;">
    <g>
        <rect id="_2mm" serif:id="2mm" x="129.581" y="60.143" width="289.317" height="293.027" style="fill:rgb(196,196,196);"/>
        <path id="_5mm" serif:id="5mm" d="M306.301,296.755L243.248,296.755L243.248,350.869L306.301,350.869L306.301,296.755ZM300.642,60.247L419.093,60.247L419.093,136.345L300.642,136.345L300.642,169.442L418.851,169.442L418.851,189.976L371.785,189.976C371.758,185.305 367.958,181.521 363.281,181.521C358.604,181.521 354.804,185.305 354.777,189.976L263.756,189.976L263.756,245.298L228.485,245.298L228.485,189.976L133.329,189.976L133.329,169.442L248.753,169.442L248.753,136.345L130.161,136.345L130.161,60.247L248.753,60.247L248.753,51.874L300.642,51.874L300.642,60.247Z" style="fill:rgb(191,191,191);"/>
        <g id="notes">
            <path d="M262.464,181.15L263.572,181.056C263.654,181.595 263.844,182 264.143,182.272C264.442,182.543 264.802,182.679 265.224,182.679C265.732,182.679 266.161,182.488 266.513,182.105C266.865,181.722 267.04,181.214 267.04,180.581C267.04,179.98 266.871,179.505 266.534,179.157C266.196,178.81 265.753,178.636 265.206,178.636C264.867,178.636 264.56,178.713 264.286,178.867C264.013,179.022 263.798,179.222 263.642,179.468L262.652,179.339L263.484,174.927L267.755,174.927L267.755,175.935L264.327,175.935L263.865,178.243C264.38,177.884 264.921,177.704 265.488,177.704C266.238,177.704 266.87,177.964 267.386,178.484C267.902,179.003 268.16,179.671 268.16,180.488C268.16,181.265 267.933,181.937 267.48,182.503C266.929,183.198 266.177,183.546 265.224,183.546C264.443,183.546 263.805,183.327 263.311,182.89C262.817,182.452 262.535,181.872 262.464,181.15Z" style="fill:rgb(8,0,255);fill-rule:nonzero;"/>
            <path d="M269.431,183.4L269.431,177.177L270.374,177.177L270.374,178.05C270.57,177.745 270.829,177.5 271.154,177.315C271.478,177.129 271.847,177.036 272.261,177.036C272.722,177.036 273.1,177.132 273.395,177.323C273.69,177.515 273.898,177.782 274.019,178.126C274.511,177.4 275.152,177.036 275.941,177.036C276.558,177.036 277.033,177.207 277.365,177.549C277.697,177.891 277.863,178.417 277.863,179.128L277.863,183.4L276.814,183.4L276.814,179.48C276.814,179.058 276.78,178.754 276.711,178.569C276.643,178.383 276.519,178.234 276.339,178.12C276.16,178.007 275.949,177.95 275.706,177.95C275.269,177.95 274.906,178.096 274.617,178.387C274.327,178.678 274.183,179.144 274.183,179.784L274.183,183.4L273.128,183.4L273.128,179.357C273.128,178.888 273.042,178.536 272.87,178.302C272.699,178.068 272.417,177.95 272.027,177.95C271.73,177.95 271.455,178.029 271.203,178.185C270.952,178.341 270.769,178.57 270.656,178.87C270.542,179.171 270.486,179.605 270.486,180.171L270.486,183.4L269.431,183.4Z" style="fill:rgb(8,0,255);fill-rule:nonzero;"/>
            <path d="M279.427,183.4L279.427,177.177L280.37,177.177L280.37,178.05C280.566,177.745 280.826,177.5 281.15,177.315C281.474,177.129 281.843,177.036 282.257,177.036C282.718,177.036 283.096,177.132 283.391,177.323C283.686,177.515 283.894,177.782 284.015,178.126C284.507,177.4 285.148,177.036 285.937,177.036C286.554,177.036 287.029,177.207 287.361,177.549C287.693,177.891 287.859,178.417 287.859,179.128L287.859,183.4L286.81,183.4L286.81,179.48C286.81,179.058 286.776,178.754 286.707,178.569C286.639,178.383 286.515,178.234 286.335,178.12C286.156,178.007 285.945,177.95 285.702,177.95C285.265,177.95 284.902,178.096 284.613,178.387C284.324,178.678 284.179,179.144 284.179,179.784L284.179,183.4L283.124,183.4L283.124,179.357C283.124,178.888 283.038,178.536 282.867,178.302C282.695,178.068 282.413,177.95 282.023,177.95C281.726,177.95 281.452,178.029 281.2,178.185C280.948,178.341 280.765,178.57 280.652,178.87C280.538,179.171 280.482,179.605 280.482,180.171L280.482,183.4L279.427,183.4Z" style="fill:rgb(8,0,255);fill-rule:nonzero;"/>
            <path d="M262.194,330.553L263.301,330.459C263.383,330.998 263.574,331.403 263.873,331.675C264.172,331.946 264.532,332.082 264.954,332.082C265.462,332.082 265.891,331.891 266.243,331.508C266.594,331.125 266.77,330.617 266.77,329.984C266.77,329.383 266.601,328.908 266.263,328.56C265.925,328.213 265.483,328.039 264.936,328.039C264.596,328.039 264.29,328.116 264.016,328.27C263.743,328.425 263.528,328.625 263.372,328.871L262.382,328.742L263.214,324.33L267.485,324.33L267.485,325.338L264.057,325.338L263.594,327.646C264.11,327.287 264.651,327.107 265.217,327.107C265.967,327.107 266.6,327.367 267.116,327.887C267.632,328.406 267.889,329.074 267.889,329.891C267.889,330.668 267.663,331.34 267.21,331.906C266.659,332.601 265.907,332.949 264.954,332.949C264.173,332.949 263.535,332.73 263.041,332.293C262.547,331.855 262.264,331.275 262.194,330.553Z" style="fill:rgb(8,0,255);fill-rule:nonzero;"/>
            <path d="M269.161,332.803L269.161,326.58L270.104,326.58L270.104,327.453C270.3,327.148 270.559,326.903 270.883,326.718C271.208,326.532 271.577,326.439 271.991,326.439C272.452,326.439 272.83,326.535 273.125,326.726C273.42,326.918 273.628,327.185 273.749,327.529C274.241,326.803 274.882,326.439 275.671,326.439C276.288,326.439 276.762,326.61 277.094,326.952C277.426,327.294 277.592,327.82 277.592,328.531L277.592,332.803L276.544,332.803L276.544,328.883C276.544,328.461 276.509,328.157 276.441,327.972C276.373,327.786 276.249,327.637 276.069,327.523C275.889,327.41 275.678,327.353 275.436,327.353C274.999,327.353 274.635,327.499 274.346,327.79C274.057,328.081 273.913,328.547 273.913,329.187L273.913,332.803L272.858,332.803L272.858,328.76C272.858,328.291 272.772,327.939 272.6,327.705C272.428,327.471 272.147,327.353 271.757,327.353C271.46,327.353 271.185,327.432 270.933,327.588C270.681,327.744 270.499,327.973 270.385,328.273C270.272,328.574 270.216,329.008 270.216,329.574L270.216,332.803L269.161,332.803Z" style="fill:rgb(8,0,255);fill-rule:nonzero;"/>
            <path d="M279.157,332.803L279.157,326.58L280.1,326.58L280.1,327.453C280.296,327.148 280.555,326.903 280.88,326.718C281.204,326.532 281.573,326.439 281.987,326.439C282.448,326.439 282.826,326.535 283.121,326.726C283.416,326.918 283.624,327.185 283.745,327.529C284.237,326.803 284.878,326.439 285.667,326.439C286.284,326.439 286.758,326.61 287.091,326.952C287.423,327.294 287.589,327.82 287.589,328.531L287.589,332.803L286.54,332.803L286.54,328.883C286.54,328.461 286.506,328.157 286.437,327.972C286.369,327.786 286.245,327.637 286.065,327.523C285.885,327.41 285.675,327.353 285.432,327.353C284.995,327.353 284.632,327.499 284.342,327.79C284.053,328.081 283.909,328.547 283.909,329.187L283.909,332.803L282.854,332.803L282.854,328.76C282.854,328.291 282.768,327.939 282.596,327.705C282.425,327.471 282.143,327.353 281.753,327.353C281.456,327.353 281.181,327.432 280.929,327.588C280.677,327.744 280.495,327.973 280.382,328.273C280.268,328.574 280.212,329.008 280.212,329.574L280.212,332.803L279.157,332.803Z" style="fill:rgb(8,0,255);fill-rule:nonzero;"/>
            <path d="M174.503,179.56L175.611,179.466C175.693,180.005 175.883,180.411 176.182,180.682C176.481,180.954 176.841,181.089 177.263,181.089C177.771,181.089 178.201,180.898 178.552,180.515C178.904,180.132 179.079,179.624 179.079,178.992C179.079,178.39 178.91,177.915 178.573,177.568C178.235,177.22 177.792,177.046 177.245,177.046C176.906,177.046 176.599,177.123 176.326,177.278C176.052,177.432 175.837,177.632 175.681,177.878L174.691,177.749L175.523,173.337L179.794,173.337L179.794,174.345L176.367,174.345L175.904,176.654C176.419,176.294 176.96,176.115 177.527,176.115C178.277,176.115 178.909,176.374 179.425,176.894C179.941,177.414 180.199,178.081 180.199,178.898C180.199,179.675 179.972,180.347 179.519,180.914C178.968,181.609 178.216,181.956 177.263,181.956C176.482,181.956 175.844,181.738 175.35,181.3C174.856,180.863 174.574,180.283 174.503,179.56Z" style="fill:rgb(8,0,255);fill-rule:nonzero;"/>
            <path d="M181.47,181.81L181.47,175.587L182.413,175.587L182.413,176.46C182.609,176.156 182.868,175.911 183.193,175.725C183.517,175.539 183.886,175.447 184.3,175.447C184.761,175.447 185.139,175.542 185.434,175.734C185.729,175.925 185.937,176.193 186.058,176.537C186.55,175.81 187.191,175.447 187.98,175.447C188.597,175.447 189.072,175.618 189.404,175.959C189.736,176.301 189.902,176.828 189.902,177.539L189.902,181.81L188.853,181.81L188.853,177.89C188.853,177.468 188.819,177.164 188.75,176.979C188.682,176.793 188.558,176.644 188.378,176.531C188.199,176.417 187.988,176.361 187.745,176.361C187.308,176.361 186.945,176.506 186.656,176.797C186.367,177.088 186.222,177.554 186.222,178.195L186.222,181.81L185.167,181.81L185.167,177.767C185.167,177.298 185.081,176.947 184.909,176.712C184.738,176.478 184.456,176.361 184.066,176.361C183.769,176.361 183.494,176.439 183.243,176.595C182.991,176.751 182.808,176.98 182.695,177.281C182.581,177.581 182.525,178.015 182.525,178.581L182.525,181.81L181.47,181.81Z" style="fill:rgb(8,0,255);fill-rule:nonzero;"/>
            <path d="M191.466,181.81L191.466,175.587L192.409,175.587L192.409,176.46C192.605,176.156 192.865,175.911 193.189,175.725C193.513,175.539 193.882,175.447 194.296,175.447C194.757,175.447 195.135,175.542 195.43,175.734C195.725,175.925 195.933,176.193 196.054,176.537C196.546,175.81 197.187,175.447 197.976,175.447C198.593,175.447 199.068,175.618 199.4,175.959C199.732,176.301 199.898,176.828 199.898,177.539L199.898,181.81L198.849,181.81L198.849,177.89C198.849,177.468 198.815,177.164 198.746,176.979C198.678,176.793 198.554,176.644 198.374,176.531C198.195,176.417 197.984,176.361 197.742,176.361C197.304,176.361 196.941,176.506 196.652,176.797C196.363,177.088 196.218,177.554 196.218,178.195L196.218,181.81L195.163,181.81L195.163,177.767C195.163,177.298 195.077,176.947 194.906,176.712C194.734,176.478 194.452,176.361 194.062,176.361C193.765,176.361 193.491,176.439 193.239,176.595C192.987,176.751 192.804,176.98 192.691,177.281C192.577,177.581 192.521,178.015 192.521,178.581L192.521,181.81L191.466,181.81Z" style="fill:rgb(8,0,255);fill-rule:nonzero;"/>
            <path d="M354.134,176.911L355.242,176.817C355.324,177.356 355.514,177.761 355.813,178.033C356.112,178.304 356.472,178.44 356.894,178.44C357.402,178.44 357.832,178.248 358.183,177.866C358.535,177.483 358.711,176.975 358.711,176.342C358.711,175.741 358.542,175.266 358.204,174.918C357.866,174.571 357.423,174.397 356.877,174.397C356.537,174.397 356.23,174.474 355.957,174.628C355.683,174.783 355.468,174.983 355.312,175.229L354.322,175.1L355.154,170.688L359.425,170.688L359.425,171.696L355.998,171.696L355.535,174.004C356.05,173.645 356.591,173.465 357.158,173.465C357.908,173.465 358.541,173.725 359.056,174.245C359.572,174.764 359.83,175.432 359.83,176.248C359.83,177.026 359.603,177.698 359.15,178.264C358.599,178.959 357.847,179.307 356.894,179.307C356.113,179.307 355.475,179.088 354.981,178.651C354.487,178.213 354.205,177.633 354.134,176.911Z" style="fill:rgb(8,0,255);fill-rule:nonzero;"/>
            <path d="M361.101,179.161L361.101,172.938L362.045,172.938L362.045,173.811C362.24,173.506 362.5,173.261 362.824,173.076C363.148,172.89 363.517,172.797 363.931,172.797C364.392,172.797 364.77,172.893 365.065,173.084C365.36,173.276 365.568,173.543 365.689,173.887C366.181,173.161 366.822,172.797 367.611,172.797C368.228,172.797 368.703,172.968 369.035,173.31C369.367,173.652 369.533,174.178 369.533,174.889L369.533,179.161L368.484,179.161L368.484,175.241C368.484,174.819 368.45,174.515 368.381,174.33C368.313,174.144 368.189,173.995 368.009,173.881C367.83,173.768 367.619,173.711 367.377,173.711C366.939,173.711 366.576,173.857 366.287,174.148C365.998,174.439 365.853,174.905 365.853,175.545L365.853,179.161L364.798,179.161L364.798,175.118C364.798,174.649 364.713,174.297 364.541,174.063C364.369,173.829 364.088,173.711 363.697,173.711C363.4,173.711 363.126,173.789 362.874,173.946C362.622,174.102 362.439,174.33 362.326,174.631C362.213,174.932 362.156,175.366 362.156,175.932L362.156,179.161L361.101,179.161Z" style="fill:rgb(8,0,255);fill-rule:nonzero;"/>
            <path d="M371.097,179.161L371.097,172.938L372.041,172.938L372.041,173.811C372.236,173.506 372.496,173.261 372.82,173.076C373.144,172.89 373.513,172.797 373.927,172.797C374.388,172.797 374.766,172.893 375.061,173.084C375.356,173.276 375.564,173.543 375.685,173.887C376.177,173.161 376.818,172.797 377.607,172.797C378.224,172.797 378.699,172.968 379.031,173.31C379.363,173.652 379.529,174.178 379.529,174.889L379.529,179.161L378.48,179.161L378.48,175.241C378.48,174.819 378.446,174.515 378.378,174.33C378.309,174.144 378.185,173.995 378.005,173.881C377.826,173.768 377.615,173.711 377.373,173.711C376.935,173.711 376.572,173.857 376.283,174.148C375.994,174.439 375.849,174.905 375.849,175.545L375.849,179.161L374.795,179.161L374.795,175.118C374.795,174.649 374.709,174.297 374.537,174.063C374.365,173.829 374.084,173.711 373.693,173.711C373.396,173.711 373.122,173.789 372.87,173.946C372.618,174.102 372.435,174.33 372.322,174.631C372.209,174.932 372.152,175.366 372.152,175.932L372.152,179.161L371.097,179.161Z" style="fill:rgb(8,0,255);fill-rule:nonzero;"/>
            <path d="M172.914,105.906L174.021,105.812C174.103,106.351 174.293,106.757 174.592,107.028C174.891,107.299 175.251,107.435 175.673,107.435C176.181,107.435 176.611,107.244 176.962,106.861C177.314,106.478 177.49,105.97 177.49,105.338C177.49,104.736 177.321,104.261 176.983,103.914C176.645,103.566 176.203,103.392 175.656,103.392C175.316,103.392 175.009,103.469 174.736,103.624C174.462,103.778 174.248,103.978 174.091,104.224L173.101,104.095L173.933,99.683L178.205,99.683L178.205,100.691L174.777,100.691L174.314,103C174.83,102.64 175.371,102.461 175.937,102.461C176.687,102.461 177.32,102.72 177.835,103.24C178.351,103.759 178.609,104.427 178.609,105.244C178.609,106.021 178.382,106.693 177.929,107.259C177.378,107.955 176.626,108.302 175.673,108.302C174.892,108.302 174.254,108.084 173.76,107.646C173.266,107.209 172.984,106.629 172.914,105.906Z" style="fill:rgb(8,0,255);fill-rule:nonzero;"/>
            <path d="M179.88,108.156L179.88,101.933L180.824,101.933L180.824,102.806C181.019,102.502 181.279,102.257 181.603,102.071C181.927,101.885 182.296,101.793 182.71,101.793C183.171,101.793 183.549,101.888 183.844,102.08C184.139,102.271 184.347,102.539 184.468,102.882C184.96,102.156 185.601,101.793 186.39,101.793C187.007,101.793 187.482,101.964 187.814,102.305C188.146,102.647 188.312,103.174 188.312,103.884L188.312,108.156L187.263,108.156L187.263,104.236C187.263,103.814 187.229,103.51 187.161,103.325C187.092,103.139 186.968,102.99 186.789,102.877C186.609,102.763 186.398,102.707 186.156,102.707C185.718,102.707 185.355,102.852 185.066,103.143C184.777,103.434 184.632,103.9 184.632,104.541L184.632,108.156L183.578,108.156L183.578,104.113C183.578,103.644 183.492,103.293 183.32,103.058C183.148,102.824 182.867,102.707 182.476,102.707C182.179,102.707 181.905,102.785 181.653,102.941C181.401,103.097 181.218,103.326 181.105,103.627C180.992,103.927 180.935,104.361 180.935,104.927L180.935,108.156L179.88,108.156Z" style="fill:rgb(8,0,255);fill-rule:nonzero;"/>
            <path d="M189.876,108.156L189.876,101.933L190.82,101.933L190.82,102.806C191.015,102.502 191.275,102.257 191.599,102.071C191.923,101.885 192.292,101.793 192.707,101.793C193.167,101.793 193.545,101.888 193.84,102.08C194.135,102.271 194.343,102.539 194.464,102.882C194.957,102.156 195.597,101.793 196.386,101.793C197.003,101.793 197.478,101.964 197.81,102.305C198.142,102.647 198.308,103.174 198.308,103.884L198.308,108.156L197.259,108.156L197.259,104.236C197.259,103.814 197.225,103.51 197.157,103.325C197.088,103.139 196.964,102.99 196.785,102.877C196.605,102.763 196.394,102.707 196.152,102.707C195.714,102.707 195.351,102.852 195.062,103.143C194.773,103.434 194.628,103.9 194.628,104.541L194.628,108.156L193.574,108.156L193.574,104.113C193.574,103.644 193.488,103.293 193.316,103.058C193.144,102.824 192.863,102.707 192.472,102.707C192.175,102.707 191.901,102.785 191.649,102.941C191.397,103.097 191.214,103.326 191.101,103.627C190.988,103.927 190.931,104.361 190.931,104.927L190.931,108.156L189.876,108.156Z" style="fill:rgb(8,0,255);fill-rule:nonzero;"/>
            <path d="M207.725,279.75L207.725,280.763L202.047,280.763C202.039,280.509 202.08,280.265 202.17,280.031C202.315,279.644 202.546,279.263 202.864,278.888C203.183,278.513 203.643,278.08 204.244,277.588C205.178,276.822 205.809,276.215 206.137,275.768C206.465,275.321 206.629,274.898 206.629,274.5C206.629,274.082 206.48,273.729 206.181,273.442C205.882,273.155 205.492,273.011 205.012,273.011C204.504,273.011 204.098,273.164 203.793,273.468C203.488,273.773 203.334,274.195 203.33,274.734L202.246,274.623C202.32,273.814 202.6,273.198 203.084,272.774C203.569,272.35 204.219,272.138 205.035,272.138C205.86,272.138 206.512,272.367 206.992,272.824C207.473,273.281 207.713,273.847 207.713,274.523C207.713,274.867 207.643,275.205 207.502,275.537C207.361,275.869 207.128,276.218 206.802,276.586C206.476,276.953 205.934,277.457 205.176,278.097C204.543,278.629 204.137,278.989 203.957,279.178C203.778,279.368 203.629,279.558 203.512,279.75L207.725,279.75Z" style="fill:rgb(8,0,255);fill-rule:nonzero;"/>
            <path d="M209.149,280.763L209.149,274.541L210.092,274.541L210.092,275.414C210.287,275.109 210.547,274.864 210.871,274.678C211.195,274.493 211.565,274.4 211.979,274.4C212.44,274.4 212.818,274.496 213.112,274.687C213.407,274.879 213.615,275.146 213.736,275.49C214.229,274.763 214.869,274.4 215.658,274.4C216.276,274.4 216.75,274.571 217.082,274.913C217.414,275.255 217.58,275.781 217.58,276.492L217.58,280.763L216.531,280.763L216.531,276.843C216.531,276.422 216.497,276.118 216.429,275.932C216.361,275.747 216.236,275.597 216.057,275.484C215.877,275.371 215.666,275.314 215.424,275.314C214.986,275.314 214.623,275.46 214.334,275.751C214.045,276.042 213.901,276.507 213.901,277.148L213.901,280.763L212.846,280.763L212.846,276.72C212.846,276.252 212.76,275.9 212.588,275.666C212.416,275.431 212.135,275.314 211.744,275.314C211.447,275.314 211.173,275.392 210.921,275.548C210.669,275.705 210.486,275.933 210.373,276.234C210.26,276.535 210.203,276.968 210.203,277.535L210.203,280.763L209.149,280.763Z" style="fill:rgb(8,0,255);fill-rule:nonzero;"/>
            <path d="M219.145,280.763L219.145,274.541L220.088,274.541L220.088,275.414C220.283,275.109 220.543,274.864 220.867,274.678C221.192,274.493 221.561,274.4 221.975,274.4C222.436,274.4 222.814,274.496 223.109,274.687C223.403,274.879 223.611,275.146 223.733,275.49C224.225,274.763 224.865,274.4 225.654,274.4C226.272,274.4 226.746,274.571 227.078,274.913C227.41,275.255 227.576,275.781 227.576,276.492L227.576,280.763L226.528,280.763L226.528,276.843C226.528,276.422 226.493,276.118 226.425,275.932C226.357,275.747 226.233,275.597 226.053,275.484C225.873,275.371 225.662,275.314 225.42,275.314C224.983,275.314 224.619,275.46 224.33,275.751C224.041,276.042 223.897,276.507 223.897,277.148L223.897,280.763L222.842,280.763L222.842,276.72C222.842,276.252 222.756,275.9 222.584,275.666C222.412,275.431 222.131,275.314 221.74,275.314C221.444,275.314 221.169,275.392 220.917,275.548C220.665,275.705 220.483,275.933 220.369,276.234C220.256,276.535 220.199,276.968 220.199,277.535L220.199,280.763L219.145,280.763Z" style="fill:rgb(8,0,255);fill-rule:nonzero;"/>
            <path d="M347.246,105.906L348.353,105.812C348.435,106.351 348.626,106.757 348.925,107.028C349.223,107.299 349.584,107.435 350.006,107.435C350.513,107.435 350.943,107.244 351.295,106.861C351.646,106.478 351.822,105.97 351.822,105.338C351.822,104.736 351.653,104.261 351.315,103.914C350.977,103.566 350.535,103.392 349.988,103.392C349.648,103.392 349.342,103.469 349.068,103.624C348.795,103.778 348.58,103.978 348.424,104.224L347.433,104.095L348.265,99.683L352.537,99.683L352.537,100.691L349.109,100.691L348.646,103C349.162,102.64 349.703,102.461 350.269,102.461C351.019,102.461 351.652,102.72 352.168,103.24C352.683,103.759 352.941,104.427 352.941,105.244C352.941,106.021 352.715,106.693 352.261,107.259C351.711,107.955 350.959,108.302 350.006,108.302C349.224,108.302 348.587,108.084 348.093,107.646C347.598,107.209 347.316,106.629 347.246,105.906Z" style="fill:rgb(8,0,255);fill-rule:nonzero;"/>
            <path d="M354.213,108.156L354.213,101.933L355.156,101.933L355.156,102.806C355.351,102.502 355.611,102.257 355.935,102.071C356.26,101.885 356.629,101.793 357.043,101.793C357.504,101.793 357.882,101.888 358.177,102.08C358.471,102.271 358.679,102.539 358.801,102.882C359.293,102.156 359.933,101.793 360.722,101.793C361.34,101.793 361.814,101.964 362.146,102.305C362.478,102.647 362.644,103.174 362.644,103.884L362.644,108.156L361.595,108.156L361.595,104.236C361.595,103.814 361.561,103.51 361.493,103.325C361.425,103.139 361.301,102.99 361.121,102.877C360.941,102.763 360.73,102.707 360.488,102.707C360.051,102.707 359.687,102.852 359.398,103.143C359.109,103.434 358.965,103.9 358.965,104.541L358.965,108.156L357.91,108.156L357.91,104.113C357.91,103.644 357.824,103.293 357.652,103.058C357.48,102.824 357.199,102.707 356.808,102.707C356.511,102.707 356.237,102.785 355.985,102.941C355.733,103.097 355.551,103.326 355.437,103.627C355.324,103.927 355.267,104.361 355.267,104.927L355.267,108.156L354.213,108.156Z" style="fill:rgb(8,0,255);fill-rule:nonzero;"/>
            <path d="M364.209,108.156L364.209,101.933L365.152,101.933L365.152,102.806C365.347,102.502 365.607,102.257 365.931,102.071C366.256,101.885 366.625,101.793 367.039,101.793C367.5,101.793 367.878,101.888 368.173,102.08C368.468,102.271 368.676,102.539 368.797,102.882C369.289,102.156 369.929,101.793 370.719,101.793C371.336,101.793 371.81,101.964 372.142,102.305C372.474,102.647 372.64,103.174 372.64,103.884L372.64,108.156L371.592,108.156L371.592,104.236C371.592,103.814 371.557,103.51 371.489,103.325C371.421,103.139 371.297,102.99 371.117,102.877C370.937,102.763 370.726,102.707 370.484,102.707C370.047,102.707 369.683,102.852 369.394,103.143C369.105,103.434 368.961,103.9 368.961,104.541L368.961,108.156L367.906,108.156L367.906,104.113C367.906,103.644 367.82,103.293 367.648,103.058C367.476,102.824 367.195,102.707 366.804,102.707C366.508,102.707 366.233,102.785 365.981,102.941C365.729,103.097 365.547,103.326 365.433,103.627C365.32,103.927 365.263,104.361 365.263,104.927L365.263,108.156L364.209,108.156Z" style="fill:rgb(8,0,255);fill-rule:nonzero;"/>
        </g>
        <path id="bottom" d="M121.836,52.191L427.978,52.191L427.978,361.167L121.836,361.167L121.836,52.191ZM177.111,135.913L129.731,135.913L129.731,353.271L180.732,353.271L180.732,144.158C178.493,142.625 177.023,140.051 177.023,137.135C177.023,136.721 177.053,136.313 177.111,135.913ZM368.545,196.702L368.545,353.271L419.545,353.271L419.545,135.913L368.545,135.913L368.545,183.347C370.518,184.905 371.785,187.318 371.785,190.025C371.785,192.731 370.518,195.144 368.545,196.702ZM272.979,314.44C278.807,314.44 283.539,319.172 283.539,325C283.539,330.829 278.807,335.56 272.979,335.56C267.151,335.56 262.419,330.829 262.419,325C262.419,319.172 267.151,314.44 272.979,314.44ZM193.944,135.913C194.001,136.313 194.031,136.721 194.031,137.135C194.031,140.333 192.263,143.12 189.652,144.572L189.652,245.413L240.466,245.413L240.466,135.913L193.944,135.913ZM249.07,189.827L300.038,189.827L300.038,245.413L249.07,245.413L249.07,189.827ZM359.756,182.285L359.756,135.913L308.942,135.913L308.942,245.413L359.756,245.413L359.756,197.765C356.82,196.424 354.777,193.461 354.777,190.025C354.777,186.589 356.82,183.626 359.756,182.285ZM153.579,79.6C159.407,79.6 164.139,84.332 164.139,90.16C164.139,95.989 159.407,100.72 153.579,100.72C147.751,100.72 143.019,95.989 143.019,90.16C143.019,84.332 147.751,79.6 153.579,79.6ZM395.979,79.6C401.807,79.6 406.539,84.332 406.539,90.16C406.539,95.989 401.807,100.72 395.979,100.72C390.151,100.72 385.419,95.989 385.419,90.16C385.419,84.332 390.151,79.6 395.979,79.6ZM222.819,79.6C228.647,79.6 233.379,84.332 233.379,90.16C233.379,95.989 228.647,100.72 222.819,100.72C216.991,100.72 212.259,95.989 212.259,90.16C212.259,84.332 216.991,79.6 222.819,79.6ZM326.139,79.24C331.967,79.24 336.699,83.972 336.699,89.8C336.699,95.629 331.967,100.36 326.139,100.36C320.311,100.36 315.579,95.629 315.579,89.8C315.579,83.972 320.311,79.24 326.139,79.24Z"/>
    </g>
</svg>
