<?xml version="1.0" encoding="UTF-8" standalone="no"?>
<!DOCTYPE svg PUBLIC "-//W3C//DTD SVG 1.1//EN" "http://www.w3.org/Graphics/SVG/1.1/DTD/svg11.dtd">
<svg width="596px" height="842px" version="1.1" xmlns="http://www.w3.org/2000/svg" xmlns:xlink="http://www.w3.org/1999/xlink" xml:space="preserve" xmlns:serif="http://www.serif.com/" style="fill-rule:evenodd;clip-rule:evenodd;stroke-linecap:round;stroke-linejoin:round;stroke-miterlimit:1.5;">
    <g id="Top-top" serif:id="Top top">
        <path d="M421.143,380.83L115.001,380.83L115.001,689.807L421.143,689.807L421.143,380.83ZM413.248,464.553L362.247,464.553L362.247,681.911L413.248,681.911L413.248,464.553ZM174.434,464.553L123.433,464.553L123.433,681.911L174.434,681.911L174.434,464.553ZM270,643.08C264.172,643.08 259.44,647.812 259.44,653.64C259.44,659.468 264.172,664.2 270,664.2C275.828,664.2 280.56,659.468 280.56,653.64C280.56,647.812 275.828,643.08 270,643.08ZM353.327,464.553L302.513,464.553L302.513,574.053L353.327,574.053L353.327,464.553ZM293.909,518.467L242.941,518.467L242.941,574.053L293.909,574.053L293.909,518.467ZM234.037,464.553L183.223,464.553L183.223,574.053L234.037,574.053L234.037,464.553ZM389.4,408.24C383.572,408.24 378.84,412.972 378.84,418.8C378.84,424.628 383.572,429.36 389.4,429.36C395.228,429.36 399.96,424.628 399.96,418.8C399.96,412.972 395.228,408.24 389.4,408.24ZM147,408.24C141.172,408.24 136.44,412.972 136.44,418.8C136.44,424.628 141.172,429.36 147,429.36C152.828,429.36 157.56,424.628 157.56,418.8C157.56,412.972 152.828,408.24 147,408.24ZM320.16,408.24C314.332,408.24 309.6,412.972 309.6,418.8C309.6,424.628 314.332,429.36 320.16,429.36C325.988,429.36 330.72,424.628 330.72,418.8C330.72,412.972 325.988,408.24 320.16,408.24ZM216.84,407.88C211.012,407.88 206.28,412.612 206.28,418.44C206.28,424.268 211.012,429 216.84,429C222.668,429 227.4,424.268 227.4,418.44C227.4,412.612 222.668,407.88 216.84,407.88Z" style="fill:rgb(7,7,7);stroke:black;stroke-width:1px;"/>
        <path d="M341.4,418.8L341.28,416.28L340.8,413.88L340.08,411.48L339.12,409.32L337.92,407.16L336.48,405.12L334.68,403.32L332.88,401.76L330.72,400.44L328.56,399.24L326.28,398.4L323.88,397.92L321.36,397.56L318.96,397.56L316.44,397.92L314.04,398.4L311.76,399.24L309.48,400.44L307.44,401.76L305.64,403.32L303.84,405.12L302.4,407.16L301.2,409.32L300.24,411.48L299.52,413.88L299.04,416.28L298.92,418.8L299.04,421.32L299.52,423.72L300.24,426.12L301.2,428.28L302.4,430.44L303.84,432.48L305.64,434.28L307.44,435.84L309.48,437.16L311.76,438.36L314.04,439.2L316.44,439.68L318.96,440.04L321.36,440.04L323.88,439.68L326.28,439.2L328.56,438.36L330.84,437.16L332.88,435.84L334.68,434.28L336.48,432.48L337.92,430.44L339.12,428.28L340.08,426.12L340.8,423.72L341.28,421.32L341.4,418.8Z" style="fill:rgb(157,157,157);fill-rule:nonzero;stroke:black;stroke-width:0.96px;stroke-linejoin:bevel;stroke-miterlimit:10;"/>
        <path d="M410.64,418.8L410.52,416.28L410.04,413.88L409.32,411.48L408.36,409.32L407.16,407.16L405.72,405.12L403.92,403.32L402.12,401.76L399.96,400.44L397.8,399.24L395.52,398.4L393.12,397.92L390.6,397.56L388.2,397.56L385.68,397.92L383.28,398.4L381,399.24L378.72,400.44L376.68,401.76L374.88,403.32L373.08,405.12L371.64,407.16L370.44,409.32L369.48,411.48L368.76,413.88L368.28,416.28L368.16,418.8L368.28,421.32L368.76,423.72L369.48,426.12L370.44,428.28L371.64,430.44L373.08,432.48L374.88,434.28L376.68,435.84L378.72,437.16L381,438.36L383.28,439.2L385.68,439.68L388.2,440.04L390.6,440.04L393.12,439.68L395.52,439.2L397.8,438.36L400.08,437.16L402.12,435.84L403.92,434.28L405.72,432.48L407.16,430.44L408.36,428.28L409.32,426.12L410.04,423.72L410.52,421.32L410.64,418.8Z" style="fill:rgb(157,157,157);fill-rule:nonzero;stroke:black;stroke-width:0.96px;stroke-linejoin:bevel;stroke-miterlimit:10;"/>
        <path d="M238.08,418.44L237.96,415.92L237.48,413.52L236.76,411.12L235.8,408.96L234.6,406.8L233.16,404.76L231.36,402.96L229.56,401.4L227.4,400.08L225.24,398.88L222.96,398.04L220.56,397.56L218.04,397.2L215.64,397.2L213.12,397.56L210.72,398.04L208.44,398.88L206.16,400.08L204.12,401.4L202.32,402.96L200.52,404.76L199.08,406.8L197.88,408.96L196.92,411.12L196.2,413.52L195.72,415.92L195.6,418.44L195.72,420.96L196.2,423.36L196.92,425.76L197.88,427.92L199.08,430.08L200.52,432.12L202.32,433.92L204.12,435.48L206.16,436.8L208.44,438L210.72,438.84L213.12,439.32L215.64,439.68L218.04,439.68L220.56,439.32L222.96,438.84L225.24,438L227.4,436.8L229.56,435.48L231.36,433.92L233.16,432.12L234.6,430.08L235.8,427.92L236.76,425.76L237.48,423.36L237.96,420.96L238.08,418.44Z" style="fill:rgb(157,157,157);fill-rule:nonzero;stroke:black;stroke-width:0.96px;stroke-linejoin:bevel;stroke-miterlimit:10;"/>
        <path d="M168.24,418.8L168.12,416.28L167.64,413.88L166.92,411.48L165.96,409.32L164.76,407.16L163.32,405.12L161.52,403.32L159.72,401.76L157.56,400.44L155.4,399.24L153.12,398.4L150.72,397.92L148.2,397.56L145.8,397.56L143.28,397.92L140.88,398.4L138.6,399.24L136.32,400.44L134.28,401.76L132.48,403.32L130.68,405.12L129.24,407.16L128.04,409.32L127.08,411.48L126.36,413.88L125.88,416.28L125.76,418.8L125.88,421.32L126.36,423.72L127.08,426.12L128.04,428.28L129.24,430.44L130.68,432.48L132.48,434.28L134.28,435.84L136.32,437.16L138.6,438.36L140.88,439.2L143.28,439.68L145.8,440.04L148.2,440.04L150.72,439.68L153.12,439.2L155.4,438.36L157.56,437.16L159.72,435.84L161.52,434.28L163.32,432.48L164.76,430.44L165.96,428.28L166.92,426.12L167.64,423.72L168.12,421.32L168.24,418.8Z" style="fill:rgb(157,157,157);fill-rule:nonzero;stroke:black;stroke-width:0.96px;stroke-linejoin:bevel;stroke-miterlimit:10;"/>
        <path d="M199.317,689.391C199.587,688.745 199.449,688.045 198.836,686.731C194.168,676.731 191.561,665.581 191.561,653.826C191.561,610.803 226.49,575.873 269.514,575.873C312.537,575.873 347.466,610.803 347.466,653.826C347.466,665.468 344.957,676.291 340.385,686.161C339.734,687.565 339.418,688.686 339.684,689.364C340.12,690.479 341.735,690.317 341.735,690.317L344.55,690.319L347.651,690.429L347.651,703.3L192.671,703.228L192.671,690.356L197.903,690.297C197.903,690.297 199.047,690.038 199.317,689.391Z" style="fill:rgb(191,191,191);"/>
    </g>
</svg>
