<?xml version="1.0" encoding="utf-8"?>
<!-- Generator: Fusion 360, Shaper Origin Export Add-In, Version 1.6.3  -->
<svg xmlns="http://www.w3.org/2000/svg" xmlns:xlink="http://www.w3.org/1999/xlink" xmlns:shaper="http://www.shapertools.com/namespaces/shaper" shaper:fusionaddin="version:1.6.3" width="10.9193652cm" height="10.8cm" version="1.1" x="0cm" y="0cm" viewBox="0 0 10.9193652 10.8" enable-background="new 0 0 10.9193652 10.8" xml:space="preserve"><path d="M10.9193652,2.9682195 L10.9193652,0 0,0 0,10.8 10.9193652,10.8 10.9193652,7.7017805 10.9193652,2.9682195z" transform="matrix(1,0,0,-1,-0,10.8)" fill="rgb(0,0,0)" shaper:cutDepth="0.0195" stroke-linecap="round" stroke-linejoin="round" /><path d="M0.4,4.5015416 L0,4.5015416 0,6.2995263 0.4,6.2995263 0.4,4.5015416z" transform="matrix(1,0,0,-1,-0,10.8)" fill="rgb(153,153,153)" fill-rule="nonzero" shaper:cutDepth="0.0105" stroke-linecap="round" stroke-linejoin="round" /><path d="M4.1345,6.362 L4.1345,4.438 0.4,4.438 0.4,6.362 4.1345,6.362z" transform="matrix(1,0,0,-1,-0,10.8)" fill="rgb(164,164,164)" fill-rule="nonzero" shaper:cutDepth="0.0125" stroke-linecap="round" stroke-linejoin="round" /><path d="M2.235,10.415 L2.235,6.475 0.485,6.475 0.485,10.415 2.235,10.415z" transform="matrix(1,0,0,-1,-0,10.8)" fill="rgb(164,164,164)" fill-rule="nonzero" shaper:cutDepth="0.0125" stroke-linecap="round" stroke-linejoin="round" /><path d="M10.39,4.485 L8.905,4.485 8.905,6.285 10.39,6.285 10.39,4.485z" transform="matrix(1,0,0,-1,-0,10.8)" fill="rgb(164,164,164)" fill-rule="nonzero" shaper:cutDepth="0.0125" stroke-linecap="round" stroke-linejoin="round" /><path d="M0.485,4.297875 L2.235,4.297875 2.235,0.375 0.485,0.375 0.485,4.297875z" transform="matrix(1,0,0,-1,-0,10.8)" fill="rgb(164,164,164)" fill-rule="nonzero" shaper:cutDepth="0.0125" stroke-linecap="round" stroke-linejoin="round" /><path d="M0.2790934,6.2995263 L0.2790934,6.362 0.3,6.362 0.3,10.5 10.6193652,10.5 10.6193652,10.4953543 2.9523,10.4953543 2.9523,8.7046457 4.6335556,8.7046457 A0.3,0.3 142.012782 0,0 5.1064444,8.7046457 L10.6193652,8.7046457 10.6193652,2.0853543 3.2607824,2.0853543 A0.3,0.3 326.7139711 0,0 2.9523,1.9556011 L2.9523,0.3 0.3,0.3 0.3,4.438 0.2790934,4.438 0.2790934,4.5015416 0.4,4.5015416 0.4,4.438 4.1345,4.438 4.1345,6.362 0.4,6.362 0.4,6.2995263 0.2790934,6.2995263z" transform="matrix(1,0,0,-1,-0,10.8)" fill="rgb(120,120,120)" fill-rule="nonzero" shaper:cutDepth="0.004" stroke-linecap="round" stroke-linejoin="round" /><path d="M4.8556333,4.9504486 A0.055,0.055 118.2508495 0,1 4.8556333,4.8535514 L4.8556333,4.4975 6.8126985,4.4975 6.8126985,6.2903543 4.8556333,6.2903543 4.8556333,5.9664486 A0.055,0.055 118.2508495 0,1 4.8556333,5.8695514 L4.8556333,4.9504486z" transform="matrix(1,0,0,-1,-0,10.8)" fill="rgb(255,255,255)" stroke="rgb(0,0,0)" stroke-width="0.0010cm" stroke-linecap="round" stroke-linejoin="round" shaper:cutDepth="0.0195" /><path d="M0.96,1.1254 a0.375,0.375 0 1,1 0.75,0 a0.375,0.375 0 1,1 -0.75,0z" transform="matrix(1,0,0,-1,-0,10.8)" fill="rgb(255,255,255)" stroke="rgb(0,0,0)" stroke-width="0.0010cm" stroke-linecap="round" stroke-linejoin="round" shaper:cutDepth="0.0195" /><path d="M0.96,3.565575 a0.375,0.375 0 1,1 0.75,0 a0.375,0.375 0 1,1 -0.75,0z" transform="matrix(1,0,0,-1,-0,10.8)" fill="rgb(255,255,255)" stroke="rgb(0,0,0)" stroke-width="0.0010cm" stroke-linecap="round" stroke-linejoin="round" shaper:cutDepth="0.0195" /><path d="M0.95,7.21016 a0.375,0.375 0 1,1 0.75,0 a0.375,0.375 0 1,1 -0.75,0z" transform="matrix(1,0,0,-1,-0,10.8)" fill="rgb(255,255,255)" stroke="rgb(0,0,0)" stroke-width="0.0010cm" stroke-linecap="round" stroke-linejoin="round" shaper:cutDepth="0.0195" /><path d="M0.96,9.67 a0.375,0.375 0 1,1 0.75,0 a0.375,0.375 0 1,1 -0.75,0z" transform="matrix(1,0,0,-1,-0,10.8)" fill="rgb(255,255,255)" stroke="rgb(0,0,0)" stroke-width="0.0010cm" stroke-linecap="round" stroke-linejoin="round" shaper:cutDepth="0.0195" /><path d="M9.245,5.335 a0.375,0.375 0 1,1 0.75,0 a0.375,0.375 0 1,1 -0.75,0z" transform="matrix(1,0,0,-1,-0,10.8)" fill="rgb(255,255,255)" stroke="rgb(0,0,0)" stroke-width="0.0010cm" stroke-linecap="round" stroke-linejoin="round" shaper:cutDepth="0.0195" /><path d="M2.9808771,2.3971457 L2.9523,2.3971457 2.9523,2.3884583 A0.15,0.15 112.6230481 0,0 2.9808771,2.3971457 L3.0391229,2.3971457 A0.15,0.15 78.8047718 0,1 2.9808771,2.3971457z" transform="matrix(1,0,0,-1,-0,10.8)" fill="rgb(255,255,255)" stroke="rgb(0,0,0)" stroke-width="0.0010cm" stroke-linecap="round" stroke-linejoin="round" shaper:cutDepth="0.0195" /><path d="M6.8126985,4.1878543 L2.9523,4.1878543 2.9523,2.5443989 A0.3,0.3 101.0889863 0,0 2.9808771,2.5485831 A0.3,0.3 95.570837 0,0 3.2714348,2.3971457 L6.8126985,2.3971457 6.8126985,4.1878543z" transform="matrix(1,0,0,-1,-0,10.8)" fill="rgb(255,255,255)" stroke="rgb(0,0,0)" stroke-width="0.0010cm" stroke-linecap="round" stroke-linejoin="round" shaper:cutDepth="0.0195" /><path d="M2.9523,6.6021457 L6.8126985,6.6021457 6.8126985,8.3928543 5.1417241,8.3928543 A0.3,0.3 334.9240673 0,0 4.5982759,8.3928543 L2.9523,8.3928543 2.9523,6.6021457z" transform="matrix(1,0,0,-1,-0,10.8)" fill="rgb(255,255,255)" stroke="rgb(0,0,0)" stroke-width="0.0010cm" stroke-linecap="round" stroke-linejoin="round" shaper:cutDepth="0.0195" /><path d="M2.9523,0.3 L2.9523,1.9556011 A0.3,0.3 258.9110137 0,1 3.2607824,2.0853543 L10.6193652,2.0853543 10.6193652,0.3 2.9523,0.3z" transform="matrix(1,0,0,-1,-0,10.8)" fill="rgb(255,255,255)" stroke="rgb(0,0,0)" stroke-width="0.0010cm" stroke-linecap="round" stroke-linejoin="round" shaper:cutDepth="0.0195" /><path d="M10.6193652,10.4953543 L2.9523,10.4953543 2.9523,8.7046457 4.6335556,8.7046457 A0.3,0.3 142.012782 0,0 5.1064444,8.7046457 L10.6193652,8.7046457 10.6193652,10.4953543z" transform="matrix(1,0,0,-1,-0,10.8)" fill="rgb(255,255,255)" stroke="rgb(0,0,0)" stroke-width="0.0010cm" stroke-linecap="round" stroke-linejoin="round" shaper:cutDepth="0.0195" /></svg>